# xmcd
#
# Track frame offsets:
#	182
#	19832
#	40355
#	61490
#	84190
#	106385
#	129525
#	151127
#	172510
#	193562
#
# Disc length: 2901 seconds
#
# Revision: 5
# Processed by: cddbd v1.5.2PL0 Copyright (c) Steve Scherf et al.
# Submitted via: EasyCDDAExtractor 15.3.0.1
#
DISCID=710b530a
DTITLE=Yolandita Monge - Mi Encuentro
DYEAR=1997
DGENRE=Latin
TTITLE0=Susususubir
TTITLE1=Yo Solamente
TTITLE2=Cierra Los Ojos Y Juntos Recordemos
TTITLE3=Solo Recuerdos
TTITLE4=Tal Para Cual
TTITLE5=Bomba Medley (Maquinolandera, Yo Soy Del Campo, Alegria Bomba Eh, Bomb
TTITLE5=a Carai Bomba)
TTITLE6=Devuelveme Tu Amor
TTITLE7=Ahora, Ahora
TTITLE8=Contraste
TTITLE9=Vete Ya
EXTD=
EXTT0=
EXTT1=
EXTT2=
EXTT3=
EXTT4=
EXTT5=
EXTT6=
EXTT7=
EXTT8=
EXTT9=
PLAYORDER=
